<?xml version="1.0" standalone="no"?>
<!DOCTYPE svg PUBLIC "-//W3C//DTD SVG 20010904//EN"
 "http://www.w3.org/TR/2001/REC-SVG-20010904/DTD/svg10.dtd">
<svg version="1.0" xmlns="http://www.w3.org/2000/svg"
 width="1164.000000pt" height="1164.000000pt" viewBox="0 0 1164.000000 1164.000000"
 preserveAspectRatio="xMidYMid meet">
<metadata>
Created by potrace 1.11, written by Peter Selinger 2001-2013
</metadata>
<g transform="translate(0.000000,1164.000000) scale(0.100000,-0.100000)"
fill="#000000" stroke="none">
<path d="M2228 7735 c-2 -2 -25 -5 -53 -8 -73 -8 -108 -14 -157 -28 -24 -7
-45 -13 -48 -13 -3 -1 -34 -12 -70 -26 -265 -99 -499 -315 -619 -575 -25 -54
-41 -92 -47 -115 -2 -8 -11 -40 -19 -70 -29 -102 -38 -177 -39 -290 0 -163 26
-292 89 -442 4 -11 3 -18 -3 -18 -6 0 -9 -8 -7 -17 40 -181 177 -390 315 -479
25 -16 47 -31 50 -34 10 -10 155 -77 193 -89 34 -11 37 -16 38 -49 0 -36 20
-163 34 -212 16 -60 12 -125 -10 -170 -30 -61 -43 -101 -62 -195 -4 -16 -6
-112 -6 -212 l0 -182 -51 -11 c-86 -18 -153 -59 -240 -148 -94 -96 -140 -122
-215 -122 -91 0 -104 -20 -71 -105 7 -19 9 -54 5 -95 -6 -58 -4 -69 15 -93 17
-21 30 -27 60 -27 44 0 57 12 35 30 -20 17 -19 32 6 89 33 79 171 169 398 261
233 95 233 95 246 158 5 21 10 41 19 80 16 60 58 212 67 240 13 41 36 41 92 1
23 -17 72 -49 110 -70 37 -22 67 -47 67 -55 0 -8 -11 -26 -24 -40 -27 -30 -65
-103 -71 -137 -3 -12 -7 -67 -9 -122 -5 -119 -19 -196 -51 -286 -13 -36 -20
-71 -16 -77 11 -17 62 -30 86 -22 11 4 47 0 80 -8 90 -21 100 -22 134 -1 33
20 41 39 16 39 -29 0 -127 43 -150 66 -24 24 -24 25 -9 76 19 64 82 218 96
236 6 6 7 12 4 12 -4 0 6 26 23 58 49 94 111 241 111 265 0 59 -135 211 -284
320 -29 21 -23 115 17 242 l35 109 101 -3 c140 -4 225 28 331 124 14 13 41 31
60 40 46 23 67 46 91 99 12 27 33 53 58 69 59 39 190 173 243 247 77 108 160
292 183 400 4 19 14 85 21 130 7 49 6 194 -1 260 -22 200 -126 441 -250 585
-51 59 -62 71 -111 115 -162 151 -393 259 -609 286 -52 6 -223 13 -227 9z
m312 -124 c19 -5 51 -14 70 -19 152 -39 349 -169 428 -280 27 -38 25 -40 -73
-46 -38 -2 -70 -5 -70 -6 0 -1 -9 -3 -20 -5 -54 -10 -103 -21 -107 -25 -2 -1
-11 -3 -21 -5 -59 -11 -296 -97 -401 -145 -196 -89 -479 -242 -551 -297 -5 -5
-23 -16 -38 -26 l-28 -18 -16 38 c-9 21 -17 40 -18 43 -1 3 -12 39 -25 80 -24
77 -27 87 -35 130 -3 14 -10 49 -16 78 l-10 54 42 55 c57 75 199 213 220 213
34 0 171 -102 279 -209 104 -102 113 -109 136 -99 13 6 24 15 24 19 0 29 -307
301 -363 322 -27 10 -17 19 75 64 110 55 159 71 278 92 56 10 194 5 240 -8z
m-530 -16 c0 -3 -27 -18 -59 -35 -33 -16 -62 -34 -66 -40 -7 -12 -55 -14 -55
-2 0 8 56 35 135 66 48 18 45 17 45 11z m-217 -132 c4 -2 -8 -16 -25 -31 -46
-38 -138 -134 -138 -144 0 -4 -5 -8 -10 -8 -6 0 -8 10 -5 23 4 13 7 30 8 38 5
32 44 82 85 109 39 26 56 28 85 13z m-276 -269 c2 -56 -2 -71 -27 -115 -17
-27 -30 -56 -30 -64 0 -8 -4 -15 -10 -15 -5 0 -9 -3 -8 -7 1 -5 -4 -20 -10
-35 -21 -49 -34 -83 -37 -98 -3 -8 -11 -40 -19 -70 -27 -101 -39 -189 -40
-311 -1 -61 -6 -92 -17 -110 l-16 -24 -8 45 c-4 25 -10 54 -12 65 -3 11 -6 74
-8 141 -2 122 17 253 49 339 5 11 15 38 23 60 28 76 151 280 163 268 2 -2 6
-33 7 -69z m1610 -42 c14 -26 37 -91 46 -132 6 -26 -1 -37 -67 -110 -42 -46
-133 -127 -192 -171 -32 -24 -61 -46 -64 -49 -3 -4 -40 -29 -83 -58 l-78 -52
-17 31 c-59 107 -179 302 -208 338 -7 8 -54 -10 -54 -21 0 -6 10 -25 23 -42
56 -74 205 -333 196 -339 -66 -48 -287 -162 -445 -231 -60 -27 -110 -49 -112
-51 -2 -2 4 -15 13 -29 13 -19 21 -23 33 -16 10 5 37 17 62 27 49 19 357 172
405 200 16 10 35 24 43 31 7 6 18 12 23 12 10 0 79 -139 79 -159 0 -6 4 -19 9
-29 42 -82 87 -264 95 -379 4 -67 11 -57 -86 -135 -25 -21 -49 -38 -52 -38 -3
0 -25 -13 -49 -30 -25 -16 -50 -30 -57 -30 -19 0 -121 59 -167 96 -43 35 -53
33 -57 -9 -2 -12 -6 -31 -9 -42 -6 -17 3 -27 47 -55 30 -19 54 -39 52 -45 -6
-24 -158 -47 -215 -33 -37 9 -39 12 -29 34 6 13 15 24 20 24 13 0 78 68 79 83
11 87 1 123 -44 165 -50 47 -143 30 -177 -33 -14 -27 -17 -100 -6 -148 4 -15
2 -36 -4 -47 -9 -16 -15 -18 -30 -10 -11 6 -20 8 -20 5 0 -4 -5 -3 -12 1 -7 4
-28 9 -48 11 -19 2 -57 14 -85 27 -27 13 -83 32 -123 42 -59 15 -81 27 -121
64 -26 25 -62 65 -78 90 -38 57 -84 143 -79 148 2 2 33 5 68 7 34 2 81 6 103
10 42 6 227 53 232 59 2 1 -8 14 -21 29 -23 25 -25 25 -64 12 -22 -8 -53 -17
-68 -19 -15 -3 -51 -10 -80 -16 -29 -6 -86 -12 -127 -14 -74 -3 -76 -3 -82 23
-4 14 -7 28 -7 31 0 3 -4 14 -8 26 -5 11 -11 38 -14 58 -4 21 -8 42 -11 46
-10 16 124 155 227 236 l57 45 25 -48 c14 -26 39 -73 56 -103 17 -30 33 -63
37 -72 3 -10 9 -18 14 -18 5 0 9 -5 9 -10 0 -16 113 -182 189 -279 36 -47 68
-88 71 -92 3 -4 29 0 58 10 l52 18 -34 36 c-19 21 -45 52 -58 69 -12 18 -30
42 -40 52 -10 11 -42 56 -70 100 -29 45 -56 83 -60 84 -5 2 -8 8 -8 14 0 5 -9
22 -19 36 -10 15 -46 81 -80 147 -42 82 -57 121 -49 124 7 2 15 7 18 11 16 21
276 171 423 243 261 129 548 233 694 253 26 3 49 7 51 9 1 1 35 2 75 2 66 0
72 -2 84 -25z m-1579 -160 c5 -38 38 -143 73 -231 16 -41 26 -78 22 -82 -5 -4
-37 -30 -73 -59 -36 -28 -88 -74 -117 -101 -28 -27 -53 -46 -56 -42 -10 21 12
207 35 288 6 22 12 45 14 50 6 24 44 124 64 168 23 51 32 53 38 9z m1746 -95
c57 -197 55 -403 -6 -597 -38 -118 -103 -243 -173 -330 -24 -31 -144 -150
-171 -170 -11 -8 -28 -21 -37 -29 -17 -13 -18 -12 -13 15 2 16 5 34 5 41 1 6
22 35 49 63 57 63 153 205 186 274 56 121 88 202 101 264 3 12 7 32 10 45 3
12 7 34 10 50 3 15 8 42 11 60 7 40 7 263 0 297 -3 14 -9 48 -12 75 -10 74 10
46 40 -58z m-89 -160 c0 -156 -4 -192 -31 -287 -8 -30 -17 -62 -19 -70 -2 -8
-4 -15 -5 -15 -1 0 -3 -8 -5 -18 -4 -21 -113 -249 -123 -257 -4 -3 -24 -30
-45 -61 -20 -30 -48 -66 -62 -79 l-25 -23 -1 39 c0 21 -2 46 -4 54 -2 8 -6 33
-10 55 -4 22 -13 60 -22 85 -8 25 -16 52 -18 60 -14 57 -91 258 -106 275 -18
18 -8 32 49 71 31 21 59 42 60 47 2 4 8 7 14 7 9 0 29 15 148 107 19 15 69 62
110 103 45 45 79 72 85 67 6 -5 10 -71 10 -160z m-1841 -522 c3 -8 1 -15 -4
-15 -6 0 -10 7 -10 15 0 8 2 15 4 15 2 0 6 -7 10 -15z m14 -50 c-3 -3 -9 2
-12 12 -6 14 -5 15 5 6 7 -7 10 -15 7 -18z m1439 -427 c-6 -23 -40 -48 -90
-67 -43 -17 -41 6 3 30 22 13 40 26 40 31 0 4 6 8 14 8 8 0 17 7 20 16 9 24
19 9 13 -18z"/>
<path d="M9857 6604 c-1 -1 -33 -5 -72 -8 -294 -22 -491 -168 -538 -398 -42
-207 32 -390 206 -507 50 -34 118 -67 312 -151 188 -82 244 -140 232 -243 -8
-62 -37 -101 -100 -135 -50 -25 -59 -27 -192 -26 -108 1 -157 5 -215 21 -108
29 -207 61 -230 73 -15 8 -20 8 -21 -2 -3 -26 6 -310 10 -329 1 -6 122 -44
171 -54 130 -27 291 -27 455 0 129 20 256 81 342 162 91 87 135 189 138 325 5
153 -30 254 -118 341 -64 64 -145 111 -327 190 -240 103 -269 121 -299 183
-40 81 3 191 89 226 96 39 289 24 459 -36 24 -9 47 -14 51 -11 4 2 24 51 45
107 21 57 42 108 46 113 4 6 9 23 11 39 3 27 -1 30 -52 48 -30 10 -64 20 -75
23 -11 2 -38 9 -60 14 -81 20 -259 43 -268 35z"/>
<path d="M3910 6575 c-5 -6 -25 -56 -43 -111 -19 -54 -125 -355 -235 -669
-111 -313 -217 -617 -237 -675 -20 -58 -39 -112 -42 -120 -3 -8 -7 -19 -9 -25
-1 -5 -9 -27 -18 -47 -9 -21 -13 -38 -10 -38 4 0 1 -6 -5 -14 -7 -8 -8 -16 -4
-19 4 -3 94 -5 200 -4 l191 0 13 46 c7 25 13 48 14 51 12 40 29 97 31 105 5
26 56 182 63 194 6 12 57 14 302 14 162 -1 301 -2 310 -2 11 -1 25 -30 46 -98
46 -146 77 -247 78 -253 1 -3 5 -17 9 -31 l7 -26 190 0 c104 0 192 4 195 9 5
7 -13 66 -37 123 -4 11 -28 79 -53 150 -24 72 -68 195 -96 275 -29 80 -56 156
-60 170 -5 14 -34 97 -65 185 -31 88 -61 171 -65 185 -5 14 -29 84 -55 155
-26 72 -50 141 -55 155 -9 29 -94 264 -108 300 l-9 25 -217 0 c-141 0 -221 -4
-226 -10z m267 -412 c22 -76 60 -196 82 -268 40 -125 46 -143 55 -182 3 -10
14 -43 24 -75 11 -31 18 -59 15 -62 -3 -3 -104 -5 -224 -6 -202 0 -218 1 -214
18 2 9 36 121 75 247 39 127 72 237 74 245 2 8 6 22 9 30 14 37 45 154 46 178
3 37 21 -3 58 -125z"/>
<path d="M8037 6582 c-9 -2 -17 -8 -17 -13 0 -5 -43 -132 -96 -282 -53 -149
-100 -283 -104 -297 -5 -14 -29 -83 -55 -155 -25 -71 -48 -137 -50 -145 -2 -8
-11 -33 -20 -54 -9 -22 -18 -47 -20 -55 -2 -9 -12 -41 -23 -71 -11 -30 -37
-102 -57 -160 -36 -104 -81 -231 -92 -260 -4 -8 -7 -17 -8 -20 -14 -47 -28
-87 -49 -145 -14 -38 -26 -71 -26 -71 0 -1 89 -1 197 0 l196 1 23 70 c42 131
75 240 80 262 9 45 24 73 39 74 8 0 143 0 300 0 157 0 291 0 299 0 7 -1 16
-10 19 -21 6 -25 5 -21 32 -100 12 -36 23 -69 24 -75 6 -29 45 -154 57 -181
l14 -31 194 0 194 0 -35 96 c-19 53 -36 103 -38 111 -2 8 -4 16 -5 18 -2 1 -3
5 -5 10 -1 4 -7 20 -13 35 -7 16 -12 31 -12 34 0 10 -70 206 -81 225 -5 10 -9
27 -9 37 0 11 -4 22 -9 25 -5 3 -11 16 -14 28 -2 13 -28 88 -56 168 -69 193
-101 282 -106 300 -3 13 -34 97 -81 225 -8 22 -16 45 -18 50 -7 28 -18 62 -26
80 -5 11 -16 40 -24 65 -41 122 -74 211 -80 217 -6 6 -407 11 -439 5z m248
-377 c15 -49 28 -94 29 -100 1 -5 21 -68 43 -140 59 -186 107 -339 109 -347 1
-5 2 -9 4 -10 1 -2 3 -11 5 -20 3 -16 -13 -18 -220 -17 l-223 1 14 51 c8 29
18 59 21 67 3 8 7 20 8 25 2 6 19 62 38 125 39 125 108 358 128 430 6 25 13
41 14 35 2 -5 15 -50 30 -100z"/>
<path d="M4739 6571 c-4 -16 -5 -277 -2 -287 3 -8 73 -11 234 -10 126 1 230
-1 230 -4 1 -3 3 -320 4 -705 1 -385 3 -703 4 -707 0 -4 82 -7 181 -7 l180 0
0 362 c1 199 1 518 1 710 l0 347 37 1 c20 1 126 1 235 2 l197 0 -2 151 -3 151
-647 1 c-357 0 -649 -2 -649 -5z"/>
<path d="M6264 5716 l1 -861 533 -2 532 -2 0 152 0 152 -347 0 -348 0 -3 711
-2 711 -183 0 -183 0 0 -861z"/>
<path d="M3328 4582 c-23 -3 -28 -8 -28 -30 -1 -45 -1 -514 -1 -562 l1 -45
177 0 178 0 3 43 3 42 -129 0 -129 0 1 98 1 97 118 3 118 3 -3 42 -3 42 -70 2
c-38 0 -90 2 -115 2 l-46 1 0 85 -1 85 41 0 c23 1 79 2 126 3 l85 2 2 30 c3
61 6 60 -154 60 -82 0 -160 -1 -175 -3z"/>
<path d="M3973 4582 c-18 -2 -33 -6 -33 -10 0 -4 16 -31 35 -59 19 -29 35 -54
35 -57 0 -2 25 -40 55 -85 30 -45 55 -87 55 -95 0 -7 -11 -30 -25 -50 -14 -20
-25 -39 -25 -41 0 -5 -87 -137 -99 -152 -6 -7 -11 -16 -11 -20 0 -4 -9 -19
-20 -33 -11 -14 -20 -27 -20 -30 0 -3 24 -5 53 -6 l53 0 47 74 c26 40 47 78
47 83 0 5 5 9 10 9 6 0 10 5 10 11 0 5 11 26 24 46 l24 35 25 -38 c13 -22 37
-61 52 -89 16 -27 33 -51 37 -53 4 -2 8 -8 8 -14 0 -5 9 -22 19 -37 17 -24 26
-27 73 -26 61 1 62 6 18 71 -17 23 -30 44 -30 46 0 2 -29 49 -66 103 -36 55
-63 107 -61 115 4 14 106 177 158 252 31 45 29 51 -24 50 -46 0 -87 -21 -87
-44 0 -5 -15 -33 -34 -61 -18 -29 -44 -71 -58 -94 l-24 -42 -72 118 c-76 125
-82 129 -149 123z"/>
<path d="M4757 4581 c-6 -2 -14 -7 -17 -12 -3 -4 -3 -145 0 -315 l5 -307 40
-2 c22 -1 45 0 51 2 7 2 10 44 9 118 -1 63 1 115 4 116 3 0 33 2 66 4 90 5
116 12 159 42 55 39 79 85 82 152 4 110 -48 177 -151 197 -39 7 -229 11 -248
5z m252 -109 c38 -28 55 -84 37 -127 -21 -50 -57 -69 -134 -69 l-66 -1 -1 105
c-1 58 0 108 2 111 1 4 33 5 70 4 46 -3 74 -9 92 -23z"/>
<path d="M5514 4580 l-42 -5 2 -315 1 -315 177 0 176 -1 4 39 c2 21 2 40 -1
43 -2 2 -60 4 -128 4 -91 0 -123 3 -124 13 -1 13 -1 89 0 149 l1 37 118 3 117
3 0 40 0 40 -113 1 c-62 1 -116 4 -119 8 -3 3 -7 42 -7 86 l-1 80 70 1 c39 0
95 0 126 -1 l57 -1 4 41 c2 24 -1 44 -7 46 -16 6 -266 9 -311 4z"/>
<path d="M6160 4565 c-4 -11 -5 -21 -1 -23 6 -2 4 -114 -3 -144 -2 -10 -1 -18
2 -18 4 0 7 -65 7 -145 0 -80 -2 -145 -5 -145 -3 0 -4 -21 -2 -47 1 -27 3 -58
3 -70 2 -26 11 -30 64 -29 l40 2 0 124 0 125 53 1 c41 1 55 -2 59 -15 4 -9 16
-29 27 -46 12 -16 21 -32 21 -35 0 -3 8 -16 16 -30 9 -14 30 -47 46 -75 l30
-50 56 -1 c32 0 57 2 57 5 0 2 -28 49 -62 103 -35 54 -73 116 -85 136 l-21 38
39 25 c108 66 101 256 -11 303 -54 23 -96 29 -214 30 -100 1 -109 -1 -116 -19z
m260 -87 c65 -29 71 -135 9 -172 -35 -21 -158 -30 -160 -12 -3 33 -4 183 -1
192 4 15 114 9 152 -8z"/>
<path d="M7399 4340 c0 -135 0 -276 -1 -314 0 -77 6 -84 61 -82 l36 1 -1 260
-2 260 23 -65 c12 -36 50 -144 83 -242 33 -97 64 -184 70 -194 10 -17 70 -28
89 -15 5 3 17 29 27 56 10 28 21 59 26 70 4 11 33 92 64 180 87 248 81 251 81
-47 l0 -263 40 0 c22 0 45 1 50 2 10 3 11 620 1 630 -3 4 -75 6 -121 4 -15 -1
-25 -12 -34 -38 -7 -21 -16 -47 -21 -58 -5 -11 -16 -40 -24 -65 -35 -107 -124
-349 -125 -340 -1 3 -11 33 -22 65 -12 33 -47 134 -79 225 -32 91 -62 176 -67
189 -9 22 -15 24 -81 25 l-72 1 -1 -245z"/>
<path d="M8450 4580 l-35 -5 -1 -312 c0 -172 2 -314 5 -314 3 -1 83 -2 178 -3
l171 -2 4 39 c2 21 2 40 -1 43 -2 2 -60 4 -128 4 -68 0 -123 3 -124 8 0 4 -1
48 -2 99 l-2 92 120 3 120 3 0 40 0 40 -114 2 c-63 1 -117 6 -120 11 -8 13 -6
151 2 158 3 3 60 6 126 6 117 0 121 1 122 21 2 26 -2 61 -6 65 -5 6 -279 7
-315 2z"/>
<path d="M9913 4582 c-22 -3 -23 -12 -14 -85 1 -5 31 -8 69 -7 118 3 110 6
114 -50 1 -28 1 -50 -2 -50 -3 0 -4 -44 -3 -97 1 -54 2 -118 3 -143 0 -25 0
-78 0 -119 0 -40 2 -77 5 -81 2 -3 26 -6 52 -5 l48 1 0 272 0 272 60 1 c33 1
75 1 93 1 32 -2 32 -1 32 46 l0 47 -217 0 c-120 0 -228 -1 -240 -3z"/>
<path d="M6937 4573 c-2 -5 -4 -147 -3 -318 l1 -310 50 0 50 0 2 50 c0 28 2
55 3 60 1 6 1 15 0 20 -1 6 -1 53 -1 105 2 114 2 90 0 260 l-1 140 -48 0 c-27
0 -51 -3 -53 -7z"/>
<path d="M9103 4263 l2 -318 45 0 45 0 -1 253 c0 138 0 252 2 252 1 0 9 -15
18 -32 10 -18 29 -52 44 -75 15 -23 56 -90 92 -148 36 -59 73 -119 82 -133 10
-15 22 -36 27 -47 28 -58 47 -70 110 -70 l61 -1 0 318 0 318 -48 0 -49 0 1
-244 c1 -134 -1 -243 -5 -241 -3 3 -32 48 -65 102 -32 54 -61 100 -64 103 -3
3 -12 19 -20 35 -8 17 -17 32 -20 35 -3 3 -34 51 -69 108 l-63 102 -63 0 -63
0 1 -317z"/>
</g>
</svg>
